<svg width="86" height="40" viewBox="0 0 86 40" fill="none" xmlns="http://www.w3.org/2000/svg">
<path d="M48.4979 24.2821C48.0497 22.5144 46.4771 21.1215 44.2902 20.5516L42.2656 20.0261C42.0222 19.9623 41.8483 19.7498 41.8328 19.4987C41.8174 19.2475 41.9661 19.0157 42.2018 18.9249L44.1511 18.1657C46.8983 17.0973 47.8391 15.7759 48.1772 12.5091C48.6196 8.25308 48.3337 0 40.7664 0H14.1023V40H42.1729C45.2716 39.5479 47.0181 38.0507 47.7812 36.4047C48.8128 34.1734 49.1238 26.7549 48.4979 24.2801V24.2821ZM21.7778 7.31997C21.7778 6.99541 22.0367 6.73267 22.3574 6.73267H36.8601C38.5602 6.73267 39.9376 8.12944 39.9376 9.85462V13.2644C39.9376 14.9877 38.5602 16.3864 36.8601 16.3864H22.3574C22.0367 16.3864 21.7778 16.1236 21.7778 15.7991V7.31997ZM36.6225 33.4431H22.3574C22.0367 33.4431 21.7778 33.1843 21.7778 32.8636V23.6213C21.7778 23.3007 22.0367 23.0418 22.3574 23.0418H36.6225C38.2955 23.0418 39.6517 24.398 39.6517 26.071V30.4158C39.6517 32.0889 38.2955 33.4451 36.6225 33.4451V33.4431Z" fill="#E9EAEB"/>
<path d="M62.139 6.7887H85.1596V0H53.4436V40H61.5595V23.7527C61.5595 23.432 61.8184 23.1731 62.139 23.1731H80.3298V16.3844H62.139C61.8184 16.3844 61.5595 16.1256 61.5595 15.8049V7.36634C61.5595 7.04564 61.8184 6.78677 62.139 6.78677V6.7887Z" fill="#E9EAEB"/>
<path d="M8.51335 0H0.839844V40H8.51335V0Z" fill="#E9EAEB"/>
</svg>
