<svg width="32" height="32" viewBox="0 0 32 32" fill="none" xmlns="http://www.w3.org/2000/svg">
<path fill-rule="evenodd" clip-rule="evenodd" d="M4.64987 14.618C11.0923 11.8111 15.3883 9.96064 17.5378 9.06659C23.675 6.51389 24.9503 6.07046 25.7815 6.05582C25.9643 6.0526 26.3731 6.09791 26.6379 6.31276C26.8614 6.49417 26.9229 6.73924 26.9524 6.91124C26.9818 7.08324 27.0185 7.47506 26.9893 7.78122C26.6568 11.2757 25.2177 19.7558 24.4856 23.6696C24.1758 25.3257 23.5658 25.881 22.9753 25.9353C21.6919 26.0534 20.7174 25.0872 19.4744 24.2724C17.5294 22.9974 16.4305 22.2037 14.5425 20.9595C12.3606 19.5217 13.7751 18.7314 15.0185 17.4399C15.344 17.1019 20.9985 11.9587 21.1079 11.4921C21.1216 11.4338 21.1343 11.2163 21.0051 11.1014C20.8759 10.9866 20.6851 11.0259 20.5475 11.0571C20.3524 11.1014 17.2452 13.1551 11.2258 17.2184C10.3439 17.824 9.545 18.1191 8.82924 18.1036C8.04018 18.0866 6.52233 17.6575 5.39397 17.2907C4.00999 16.8408 2.91003 16.603 3.00581 15.8389C3.0557 15.441 3.60372 15.034 4.64987 14.618Z" fill="#666666"/>
</svg>
